<svg t="1706831060628" class="icon" viewBox="0 0 1024 1024" version="1.1" xmlns="http://www.w3.org/2000/svg" p-id="1180" width="200" height="200"><path d="M725.507 669.185l-4.797 36.784h-25.587v-33.585l-52.775-7.997 4.799-20.788c22.39-15.992 115.145 17.589 182.313-78.367 67.168-95.954 12.993-157.595 0-167.905-16.793-13.326-105.551 1.597-105.551 1.597s51.178-44.592 63.968-92.757 0-123.138 0-123.138C740 102 648.742 96.668 648.742 96.668 552 160.667 519.205 326.959 519.205 326.959l-22.389-1.598c-17.591-70.366-73.566-148.729-174.319-175.918-100.752-27.189-139.134 89.559-139.134 89.559-3.2 150.33 126.341 239.885 126.341 239.885C61.822 515.68 68.217 632.404 68.217 632.404c79.961 134.337 319.852 87.959 319.852 87.959l4.797 73.563c148.729 9.597 217.496-39.98 217.496-39.98l6.398 68.766c-47.979 54.374-38.382 123.145-38.382 123.145 91.157-20.789 118.344-118.345 118.344-118.345l39.98-15.992 105.55-14.393c111.949-113.549 113.547-190.313 113.547-190.313-150.331-9.595-230.292 62.371-230.292 62.371zM519.205 530.051c-15.898 0-28.788-12.889-28.788-28.788 0-15.897 12.89-28.786 28.788-28.786 15.896 0 28.786 12.888 28.786 28.786 0 15.899-12.889 28.788-28.786 28.788z m187.11 239.887v-7.993s68.77-57.573 87.96-52.776c19.192 4.798-38.384 68.762-87.96 60.769z" p-id="1181" fill="#1296db"></path></svg>